<svg version="1.1" xmlns="http://www.w3.org/2000/svg" viewBox="0 0 796.0625457763672 303.00001525878906" width="796.0625457763672" height="303.00001525878906" filter="invert(93%) hue-rotate(180deg)">
  <!-- svg-source:excalidraw -->
  
  <defs>
    <style class="style-fonts">
      @font-face {
        font-family: "Virgil";
        src: url("https://unpkg.com/revedraw@1.0.0-alpha.10/dist/excalidraw-assets/Virgil.woff2");
      }
      @font-face {
        font-family: "Cascadia";
        src: url("https://unpkg.com/revedraw@1.0.0-alpha.10/dist/excalidraw-assets/Cascadia.woff2");
      }
    </style>
    
  </defs>
  <rect x="0" y="0" width="796.0625457763672" height="303.00001525878906" fill="#ffffff"></rect><g stroke-linecap="round" transform="translate(10 110.66667175292969) rotate(0 68 30.333343505859375)"><path d="M2.18 5.87 C2.18 5.87, 2.18 5.87, 2.18 5.87 M2.18 5.87 C2.18 5.87, 2.18 5.87, 2.18 5.87 M1.26 13.02 C2.77 10.49, 6.34 6.99, 8.48 4.72 M1.26 13.02 C2.98 10.26, 5.54 7.84, 8.48 4.72 M1.66 18.67 C4.38 13.86, 8.96 9.72, 16.75 1.31 M1.66 18.67 C7 13.81, 10.86 7.52, 16.75 1.31 M1.4 25.06 C11.09 17.9, 15.88 5.55, 21.73 1.67 M1.4 25.06 C7.79 17.91, 14.41 10.8, 21.73 1.67 M1.79 30.71 C11.07 19.71, 21.06 9.23, 27.38 1.27 M1.79 30.71 C11.37 20.81, 20.34 11.05, 27.38 1.27 M1.53 37.1 C14.39 23.84, 24.94 10.38, 32.36 1.63 M1.53 37.1 C9.06 27.34, 17.11 19.23, 32.36 1.63 M1.27 43.5 C11.73 30.29, 24.29 17.99, 38.01 1.24 M1.27 43.5 C12.62 31.25, 22.89 18.82, 38.01 1.24 M1.01 49.9 C14.89 34.16, 27.98 21.2, 42.99 1.6 M1.01 49.9 C13.23 35.99, 26.64 20.86, 42.99 1.6 M2.71 54.03 C17.8 35.89, 31.49 17.57, 47.98 1.96 M2.71 54.03 C20.44 32.85, 37.73 13.36, 47.98 1.96 M5.08 57.41 C16.26 45.38, 27.82 28.82, 53.62 1.56 M5.08 57.41 C19.92 40.06, 36.47 21.91, 53.62 1.56 M8.09 60.04 C26.03 39.48, 39.68 21.02, 58.61 1.92 M8.09 60.04 C20.22 45.65, 33.09 31.41, 58.61 1.92 M11.77 61.91 C30.07 41.57, 48.02 17.16, 64.25 1.53 M11.77 61.91 C33.02 37.9, 51.62 14.48, 64.25 1.53 M16.76 62.27 C34.94 44.07, 49.97 25.82, 69.24 1.89 M16.76 62.27 C38.33 38.92, 58.13 15.18, 69.24 1.89 M21.74 62.63 C40.17 40.26, 59.95 16.01, 74.88 1.5 M21.74 62.63 C36.11 47.64, 49.55 31.87, 74.88 1.5 M27.39 62.23 C35.97 51.04, 49.66 35.93, 79.87 1.86 M27.39 62.23 C44.08 43.11, 61.04 23.04, 79.87 1.86 M32.37 62.59 C47.03 45.5, 61.43 29.52, 84.86 2.22 M32.37 62.59 C46.99 46.09, 60.64 30.89, 84.86 2.22 M38.02 62.2 C49.5 47.5, 66.53 30.2, 90.5 1.82 M38.02 62.2 C48.34 48.48, 59.39 36.38, 90.5 1.82 M43 62.56 C61.62 38.16, 83.49 17.39, 95.49 2.18 M43 62.56 C59.29 45.05, 73.76 28.35, 95.49 2.18 M47.99 62.92 C69.48 38.52, 91.09 15.42, 101.13 1.79 M47.99 62.92 C62.18 45.34, 77.77 27.57, 101.13 1.79 M53.63 62.52 C70.09 42.22, 85.17 23.23, 106.12 2.15 M53.63 62.52 C68.66 43.13, 85.44 25.2, 106.12 2.15 M58.62 62.88 C75.56 47.42, 90.53 27.34, 111.11 2.51 M58.62 62.88 C78.07 39.98, 97.55 16.49, 111.11 2.51 M64.26 62.49 C74.95 47.76, 86.81 35.73, 116.75 2.11 M64.26 62.49 C79.63 45.43, 93.2 27.24, 116.75 2.11 M69.25 62.85 C82.55 46.68, 98.68 30.34, 121.74 2.47 M69.25 62.85 C90.79 38.95, 110.68 14.57, 121.74 2.47 M74.89 62.45 C92.43 42.2, 110.43 24.07, 128.03 1.32 M74.89 62.45 C90.54 44.58, 106.94 26.09, 128.03 1.32 M79.88 62.81 C90.96 49.7, 107.4 32.62, 131.71 3.19 M79.88 62.81 C93.62 47.29, 105.8 31.3, 131.71 3.19 M84.87 63.17 C106.26 42.6, 123.95 20.81, 134.73 5.82 M84.87 63.17 C104.77 39.88, 123.65 18.71, 134.73 5.82 M90.51 62.78 C106.31 40.72, 125.01 24.42, 136.43 9.95 M90.51 62.78 C106.3 43.82, 120.82 27.94, 136.43 9.95 M95.5 63.14 C105.57 50.2, 119.09 35.06, 138.14 14.08 M95.5 63.14 C108.69 48.46, 120.99 33.93, 138.14 14.08 M101.14 62.75 C114.32 47.41, 128.67 29.29, 138.54 19.73 M101.14 62.75 C110.56 51.95, 118.83 42.49, 138.54 19.73 M106.13 63.11 C116.28 51.66, 129.78 36.41, 138.27 26.12 M106.13 63.11 C118.7 49.21, 129.72 37.33, 138.27 26.12 M111.11 63.47 C116.85 56.62, 124 51.57, 138.01 32.52 M111.11 63.47 C118.1 56.09, 123.62 48.71, 138.01 32.52 M116.76 63.07 C124.83 57.7, 127.44 49.83, 137.75 38.92 M116.76 63.07 C120.93 57.62, 125.86 53.43, 137.75 38.92 M122.4 62.68 C125.03 58.59, 129.66 53.67, 137.49 45.32 M122.4 62.68 C125.95 59.52, 129.47 54.51, 137.49 45.32" stroke="#ffec99" stroke-width="0.5" fill="none"></path><path d="M15.17 0 M15.17 0 C46.18 1.74, 76.83 -0.53, 120.83 0 M15.17 0 C40.2 0.62, 65.65 0.53, 120.83 0 M120.83 0 C129.26 -1.42, 135.97 6.99, 136 15.17 M120.83 0 C130.59 -1.28, 134.26 5.55, 136 15.17 M136 15.17 C137.46 25.38, 137.67 34.93, 136 45.5 M136 15.17 C135.66 25.32, 136.59 36.94, 136 45.5 M136 45.5 C137.22 54.17, 131.19 62.44, 120.83 60.67 M136 45.5 C136.98 55.6, 131.73 58.52, 120.83 60.67 M120.83 60.67 C86.18 59.53, 50.75 60.26, 15.17 60.67 M120.83 60.67 C91.65 59.56, 64.53 60.94, 15.17 60.67 M15.17 60.67 C4.33 59.02, 0.35 57.42, 0 45.5 M15.17 60.67 C3.41 60.45, -1.35 54, 0 45.5 M0 45.5 C0.46 36.22, 0.43 23.84, 0 15.17 M0 45.5 C0.53 38.05, 0.43 27.91, 0 15.17 M0 15.17 C-0.57 6.02, 5.13 -1.75, 15.17 0 M0 15.17 C-1.9 6.1, 6.23 -0.19, 15.17 0" stroke="#f08c00" stroke-width="1" fill="none"></path></g><g transform="translate(38 128.50001525878906) rotate(0 40 12.5)"><text x="40" y="0" font-family="HanziPen SC, HanziPen Remote, Virgil, KaiTi, Segoe UI Emoji" font-size="20px" fill="#f08c00" text-anchor="middle" style="white-space: pre;" direction="ltr" dominant-baseline="text-before-edge">项目源码</text></g><g stroke-linecap="round" transform="translate(192.33331298828125 111.66664123535156) rotate(0 68 30.333343505859375)"><path d="M2.18 5.87 C2.18 5.87, 2.18 5.87, 2.18 5.87 M2.18 5.87 C2.18 5.87, 2.18 5.87, 2.18 5.87 M1.26 13.02 C3.26 10.92, 5.82 7.37, 8.48 4.72 M1.26 13.02 C3.35 10.55, 5.35 8.41, 8.48 4.72 M1.66 18.67 C5.95 13.54, 8.93 11.11, 16.75 1.31 M1.66 18.67 C4.54 14.71, 10.12 9.44, 16.75 1.31 M1.4 25.06 C4.18 19.25, 8.11 15.97, 21.73 1.67 M1.4 25.06 C8.5 15.44, 17.21 7.62, 21.73 1.67 M1.79 30.71 C11.14 22.37, 17.32 15.13, 27.38 1.27 M1.79 30.71 C12.15 18.96, 22.57 7.85, 27.38 1.27 M1.53 37.1 C9.16 26.83, 18.77 16.1, 32.36 1.63 M1.53 37.1 C11.2 25.29, 20.18 14.14, 32.36 1.63 M1.27 43.5 C10.69 29.06, 23.1 17.54, 38.01 1.24 M1.27 43.5 C12.79 32.32, 23.27 18.84, 38.01 1.24 M1.01 49.9 C16.39 31.76, 31.26 12.49, 42.99 1.6 M1.01 49.9 C9.68 38.49, 18.98 28.59, 42.99 1.6 M2.71 54.03 C16.77 39.54, 26.8 22.86, 47.98 1.96 M2.71 54.03 C14.54 40.25, 27.65 26.27, 47.98 1.96 M5.08 57.41 C25.38 34.83, 42.84 11.73, 53.62 1.56 M5.08 57.41 C20.74 39.01, 36.79 21.82, 53.62 1.56 M8.09 60.04 C22.6 44, 38.5 26.46, 58.61 1.92 M8.09 60.04 C19.67 46.31, 34.08 30.65, 58.61 1.92 M11.77 61.91 C26.11 46.01, 37.36 29.12, 64.25 1.53 M11.77 61.91 C33.36 39.61, 52.83 16.49, 64.25 1.53 M16.76 62.27 C37.85 36.89, 57.4 15.49, 69.24 1.89 M16.76 62.27 C35.79 38.33, 56.24 17.41, 69.24 1.89 M21.74 62.63 C40.48 39.86, 56.5 23.09, 74.88 1.5 M21.74 62.63 C35.3 46.16, 50.66 28.71, 74.88 1.5 M27.39 62.23 C43.97 43.98, 58.68 26.29, 79.87 1.86 M27.39 62.23 C46.89 39.99, 66.88 16.18, 79.87 1.86 M32.37 62.59 C45.77 47.22, 56.73 34.69, 84.86 2.22 M32.37 62.59 C49.76 42.38, 69.09 20.28, 84.86 2.22 M38.02 62.2 C58.87 39.27, 76.67 20.39, 90.5 1.82 M38.02 62.2 C49.2 49.39, 61.06 37.33, 90.5 1.82 M43 62.56 C56.65 48.19, 67.36 33.8, 95.49 2.18 M43 62.56 C59.43 45.54, 72.98 27.52, 95.49 2.18 M47.99 62.92 C58.58 49.31, 70.75 38.26, 101.13 1.79 M47.99 62.92 C60.22 48.44, 73.23 33.68, 101.13 1.79 M53.63 62.52 C65.69 50.18, 77.81 34.33, 106.12 2.15 M53.63 62.52 C68.46 45.39, 83.68 26.25, 106.12 2.15 M58.62 62.88 C71.82 48.93, 85.32 34.54, 111.11 2.51 M58.62 62.88 C71.33 49.71, 81.13 36.09, 111.11 2.51 M64.26 62.49 C82.8 43.77, 97.75 24.57, 116.75 2.11 M64.26 62.49 C77.9 47.01, 91.36 31.98, 116.75 2.11 M69.25 62.85 C88.7 42.48, 108.89 18.18, 121.74 2.47 M69.25 62.85 C87.14 42.75, 105.13 21.6, 121.74 2.47 M74.89 62.45 C92.2 43.19, 106.42 23.94, 128.03 1.32 M74.89 62.45 C94.81 38.48, 117.69 13.25, 128.03 1.32 M79.88 62.81 C96.45 46.8, 110.71 29.12, 131.71 3.19 M79.88 62.81 C99.1 40.52, 118.07 18.28, 131.71 3.19 M84.87 63.17 C103.65 41.93, 123.95 16.62, 134.73 5.82 M84.87 63.17 C95.37 51.38, 106.63 38.63, 134.73 5.82 M90.51 62.78 C110.06 41.6, 126.96 21.46, 136.43 9.95 M90.51 62.78 C105.66 43.16, 122.68 25.02, 136.43 9.95 M95.5 63.14 C108.07 50.93, 115.17 40.65, 138.14 14.08 M95.5 63.14 C111.33 46.56, 125.29 29.52, 138.14 14.08 M101.14 62.75 C111.18 53.61, 118.93 39.81, 138.54 19.73 M101.14 62.75 C110.9 52.17, 118.7 41.94, 138.54 19.73 M106.13 63.11 C115.7 49.64, 129.77 35.11, 138.27 26.12 M106.13 63.11 C117.08 51.92, 127.78 38.29, 138.27 26.12 M111.11 63.47 C119.26 54.82, 128.59 40.98, 138.01 32.52 M111.11 63.47 C117.9 54.24, 125.62 44.83, 138.01 32.52 M116.76 63.07 C123.76 55.31, 126.58 48.7, 137.75 38.92 M116.76 63.07 C121.77 58.48, 125.01 53.99, 137.75 38.92 M122.4 62.68 C124.97 57.14, 133.24 50.75, 137.49 45.32 M122.4 62.68 C126.75 57.86, 131.27 52.27, 137.49 45.32" stroke="#ffec99" stroke-width="0.5" fill="none"></path><path d="M15.17 0 M15.17 0 C50.07 2.32, 88 1.3, 120.83 0 M15.17 0 C49.91 0.47, 85.08 0.65, 120.83 0 M120.83 0 C130.86 -0.36, 134.29 5.27, 136 15.17 M120.83 0 C132.47 -1.14, 137.63 5.5, 136 15.17 M136 15.17 C134.92 21.58, 138.06 27.39, 136 45.5 M136 15.17 C136.76 22.25, 136.83 31.32, 136 45.5 M136 45.5 C136.99 57.34, 129.05 60.87, 120.83 60.67 M136 45.5 C135.34 53.36, 129.83 61.08, 120.83 60.67 M120.83 60.67 C86.43 60.41, 52.3 59.06, 15.17 60.67 M120.83 60.67 C86.38 60.12, 53.17 59.9, 15.17 60.67 M15.17 60.67 C6.74 59.3, -0.35 56.01, 0 45.5 M15.17 60.67 C5.9 60.76, 0.1 53.53, 0 45.5 M0 45.5 C1.07 33.8, -1.28 27.16, 0 15.17 M0 45.5 C0.87 37.05, -0.33 26.44, 0 15.17 M0 15.17 C0.57 5.77, 5.48 -0.87, 15.17 0 M0 15.17 C-1.32 5.41, 4.39 -1.42, 15.17 0" stroke="#f08c00" stroke-width="1" fill="none"></path></g><g transform="translate(202.57335662841797 116.99998474121094) rotate(0 57.75995635986328 25)"><text x="57.75995635986328" y="0" font-family="HanziPen SC, HanziPen Remote, Virgil, KaiTi, Segoe UI Emoji" font-size="20px" fill="#f08c00" text-anchor="middle" style="white-space: pre;" direction="ltr" dominant-baseline="text-before-edge">CMakeLists.txt</text><text x="57.75995635986328" y="25" font-family="HanziPen SC, HanziPen Remote, Virgil, KaiTi, Segoe UI Emoji" font-size="20px" fill="#f08c00" text-anchor="middle" style="white-space: pre;" direction="ltr" dominant-baseline="text-before-edge">(编写文件)</text></g><g stroke-linecap="round" transform="translate(374.06260681152344 111.00001525878906) rotate(0 68 30.333343505859375)"><path d="M2.18 5.87 C2.18 5.87, 2.18 5.87, 2.18 5.87 M2.18 5.87 C2.18 5.87, 2.18 5.87, 2.18 5.87 M1.26 13.02 C3.7 10.97, 7.14 6.99, 8.48 4.72 M1.26 13.02 C4.01 10.39, 6.32 7.51, 8.48 4.72 M1.66 18.67 C8.99 14.36, 12.3 5.54, 16.75 1.31 M1.66 18.67 C5.91 12.82, 9.64 9.22, 16.75 1.31 M1.4 25.06 C7.09 20.02, 11.77 16.59, 21.73 1.67 M1.4 25.06 C4.53 20.04, 9.64 16.19, 21.73 1.67 M1.79 30.71 C7.05 22.33, 17.97 14.68, 27.38 1.27 M1.79 30.71 C9.46 20.09, 20.13 10.07, 27.38 1.27 M1.53 37.1 C11.75 26.59, 19.75 14.61, 32.36 1.63 M1.53 37.1 C11.51 25.43, 21.7 14.91, 32.36 1.63 M1.27 43.5 C12.34 31.18, 20.6 19.53, 38.01 1.24 M1.27 43.5 C13.92 28.04, 27.86 14.71, 38.01 1.24 M1.01 49.9 C17.64 34.12, 30.47 16.01, 42.99 1.6 M1.01 49.9 C11.75 36.86, 24.5 22.56, 42.99 1.6 M2.71 54.03 C15.7 40.31, 30.39 22.67, 47.98 1.96 M2.71 54.03 C15.65 38.3, 28.74 24.45, 47.98 1.96 M5.08 57.41 C19.58 40.33, 31.78 25.12, 53.62 1.56 M5.08 57.41 C21.96 37.85, 40.27 16.54, 53.62 1.56 M8.09 60.04 C20.92 45.46, 33.05 28.98, 58.61 1.92 M8.09 60.04 C26.04 40.1, 42.48 19.68, 58.61 1.92 M11.77 61.91 C34.29 36.85, 52.74 13.08, 64.25 1.53 M11.77 61.91 C23.33 49.64, 34.47 35.16, 64.25 1.53 M16.76 62.27 C28.48 46.81, 39.3 34.53, 69.24 1.89 M16.76 62.27 C34.5 41.38, 52.32 20.65, 69.24 1.89 M21.74 62.63 C40.69 40.67, 60.98 21.65, 74.88 1.5 M21.74 62.63 C42.25 40.92, 60.55 18.77, 74.88 1.5 M27.39 62.23 C38.54 50.32, 47.46 37.51, 79.87 1.86 M27.39 62.23 C41.14 45.39, 54.79 30.85, 79.87 1.86 M32.37 62.59 C52.3 42.57, 69.88 18.3, 84.86 2.22 M32.37 62.59 C45.94 47.89, 58.43 33.94, 84.86 2.22 M38.02 62.2 C55.8 40.73, 73.71 24.53, 90.5 1.82 M38.02 62.2 C57.4 41.19, 74.47 19.14, 90.5 1.82 M43 62.56 C62.69 42.41, 80.27 22.91, 95.49 2.18 M43 62.56 C53.3 49.69, 64.49 38.24, 95.49 2.18 M47.99 62.92 C60.15 47.16, 74.99 28.66, 101.13 1.79 M47.99 62.92 C59.3 48.12, 71.93 35.93, 101.13 1.79 M53.63 62.52 C65.4 49.11, 76.19 37.02, 106.12 2.15 M53.63 62.52 C70.48 43.32, 85.09 24.75, 106.12 2.15 M58.62 62.88 C72.29 45.09, 86.66 31.53, 111.11 2.51 M58.62 62.88 C75.12 44.78, 90.93 25.71, 111.11 2.51 M64.26 62.49 C82.25 44.82, 95.35 26.54, 116.75 2.11 M64.26 62.49 C82.13 43.17, 97.15 24.22, 116.75 2.11 M69.25 62.85 C82.25 45.54, 94.95 30.74, 121.74 2.47 M69.25 62.85 C83.23 45.03, 97.71 27.96, 121.74 2.47 M74.89 62.45 C89.52 45.38, 104.18 30.71, 128.03 1.32 M74.89 62.45 C91.72 44.71, 107.79 24.55, 128.03 1.32 M79.88 62.81 C99.57 40.7, 117.94 19.65, 131.71 3.19 M79.88 62.81 C100.24 40.99, 118.88 19.57, 131.71 3.19 M84.87 63.17 C101.07 44.64, 116.85 27.81, 134.73 5.82 M84.87 63.17 C100.09 46.44, 114.21 30.94, 134.73 5.82 M90.51 62.78 C99.62 50.72, 113.15 37.71, 136.43 9.95 M90.51 62.78 C102.41 48.38, 114.15 36.32, 136.43 9.95 M95.5 63.14 C110.17 45.84, 122.9 28.3, 138.14 14.08 M95.5 63.14 C108.96 47.94, 122.29 32.86, 138.14 14.08 M101.14 62.75 C109.41 53.1, 115.82 45.61, 138.54 19.73 M101.14 62.75 C108.37 54.26, 116.69 45.17, 138.54 19.73 M106.13 63.11 C114.98 51.26, 126.9 38.87, 138.27 26.12 M106.13 63.11 C112.93 54.53, 121.19 47, 138.27 26.12 M111.11 63.47 C119.16 55.67, 124.65 45.96, 138.01 32.52 M111.11 63.47 C119.51 54.07, 128.83 43.17, 138.01 32.52 M116.76 63.07 C122.3 54.08, 129.44 48.34, 137.75 38.92 M116.76 63.07 C123.05 54.41, 130.9 47.63, 137.75 38.92 M122.4 62.68 C125.51 57.51, 128.06 53.16, 137.49 45.32 M122.4 62.68 C126.71 57.33, 130.65 52.87, 137.49 45.32" stroke="#ffec99" stroke-width="0.5" fill="none"></path><path d="M15.17 0 M15.17 0 C43.38 -0.27, 72.47 0.27, 120.83 0 M15.17 0 C38.69 -0.09, 63.5 -0.76, 120.83 0 M120.83 0 C131.47 1.54, 137.97 6.06, 136 15.17 M120.83 0 C132.41 -1.25, 135.58 6.88, 136 15.17 M136 15.17 C136.56 26.64, 134.23 35.31, 136 45.5 M136 15.17 C135.08 22.22, 135.41 29.38, 136 45.5 M136 45.5 C137.55 56.49, 130.15 60.27, 120.83 60.67 M136 45.5 C136.6 57.77, 130.79 59.87, 120.83 60.67 M120.83 60.67 C89.41 60.18, 60.61 62.58, 15.17 60.67 M120.83 60.67 C89.92 60.64, 57.5 60.61, 15.17 60.67 M15.17 60.67 C5.43 60.14, 1.75 53.76, 0 45.5 M15.17 60.67 C3.31 61.17, 1.72 57.67, 0 45.5 M0 45.5 C0.41 34.72, -0.04 28.74, 0 15.17 M0 45.5 C0.62 38.68, -0.52 32.46, 0 15.17 M0 15.17 C0.69 3.83, 4.82 -1.4, 15.17 0 M0 15.17 C1.04 7.21, 3.88 -1.67, 15.17 0" stroke="#f08c00" stroke-width="1" fill="none"></path></g><g transform="translate(395.4026184082031 116.33335876464844) rotate(0 46.65998840332031 25)"><text x="46.65998840332031" y="0" font-family="HanziPen SC, HanziPen Remote, Virgil, KaiTi, Segoe UI Emoji" font-size="20px" fill="#f08c00" text-anchor="middle" style="white-space: pre;" direction="ltr" dominant-baseline="text-before-edge">cmake</text><text x="46.65998840332031" y="25" font-family="HanziPen SC, HanziPen Remote, Virgil, KaiTi, Segoe UI Emoji" font-size="20px" fill="#f08c00" text-anchor="middle" style="white-space: pre;" direction="ltr" dominant-baseline="text-before-edge">(执行命令)</text></g><g stroke-linecap="round" transform="translate(650.0625457763672 102.99998474121094) rotate(0 68 30.333343505859375)"><path d="M2.18 5.87 C2.18 5.87, 2.18 5.87, 2.18 5.87 M2.18 5.87 C2.18 5.87, 2.18 5.87, 2.18 5.87 M1.26 13.02 C3.41 10.35, 6.24 6.2, 8.48 4.72 M1.26 13.02 C3.18 10.8, 4.39 9.43, 8.48 4.72 M1.66 18.67 C6.05 14.01, 13.65 5.53, 16.75 1.31 M1.66 18.67 C8.04 11.79, 12.93 6.97, 16.75 1.31 M1.4 25.06 C5.74 19.8, 11.49 16.34, 21.73 1.67 M1.4 25.06 C6.74 19.61, 10.62 14.1, 21.73 1.67 M1.79 30.71 C11.22 23.77, 15.17 14.36, 27.38 1.27 M1.79 30.71 C6.89 24.14, 12.77 18.85, 27.38 1.27 M1.53 37.1 C7.93 28.72, 16.25 19.56, 32.36 1.63 M1.53 37.1 C8.58 29.69, 15.69 20.57, 32.36 1.63 M1.27 43.5 C11.33 32.73, 21.42 17.86, 38.01 1.24 M1.27 43.5 C10.44 33.75, 19.66 23.71, 38.01 1.24 M1.01 49.9 C12.34 39.18, 18.34 27.56, 42.99 1.6 M1.01 49.9 C15.27 34.57, 27.8 19.15, 42.99 1.6 M2.71 54.03 C14.52 40.63, 25.66 28.73, 47.98 1.96 M2.71 54.03 C19.4 35.83, 36.59 15.51, 47.98 1.96 M5.08 57.41 C21.39 39.09, 38.5 18.5, 53.62 1.56 M5.08 57.41 C20.52 40.14, 34.33 22.81, 53.62 1.56 M8.09 60.04 C26.16 37.43, 49.73 12.51, 58.61 1.92 M8.09 60.04 C23.7 43.98, 37.98 26.91, 58.61 1.92 M11.77 61.91 C31 39.6, 49.58 17.42, 64.25 1.53 M11.77 61.91 C31.86 39.01, 52.87 13.87, 64.25 1.53 M16.76 62.27 C27.74 50.74, 39.97 37.06, 69.24 1.89 M16.76 62.27 C38.66 37.81, 58.92 14.16, 69.24 1.89 M21.74 62.63 C38.56 39.12, 59.22 18.22, 74.88 1.5 M21.74 62.63 C36.13 47.25, 47.49 33.13, 74.88 1.5 M27.39 62.23 C47.21 42.34, 63.66 21.46, 79.87 1.86 M27.39 62.23 C40.9 47.78, 53.3 31.08, 79.87 1.86 M32.37 62.59 C46.4 47.62, 56.6 33.37, 84.86 2.22 M32.37 62.59 C50.07 41.06, 70.07 18.87, 84.86 2.22 M38.02 62.2 C56.01 44.27, 73.51 21.5, 90.5 1.82 M38.02 62.2 C55.29 42.81, 73.23 20.62, 90.5 1.82 M43 62.56 C56.19 44.54, 71.26 26.16, 95.49 2.18 M43 62.56 C57.69 45.99, 70.19 29.93, 95.49 2.18 M47.99 62.92 C60.37 51.18, 69.16 39.55, 101.13 1.79 M47.99 62.92 C62.73 44.87, 80.39 26.11, 101.13 1.79 M53.63 62.52 C68.83 45.04, 84.53 26.17, 106.12 2.15 M53.63 62.52 C70.54 42.72, 89.39 21.24, 106.12 2.15 M58.62 62.88 C75.12 43.53, 92.52 23.75, 111.11 2.51 M58.62 62.88 C74.36 46.14, 89.27 28.34, 111.11 2.51 M64.26 62.49 C79.98 41.92, 97.79 25.78, 116.75 2.11 M64.26 62.49 C77.13 49.15, 87.53 35.64, 116.75 2.11 M69.25 62.85 C86.71 40, 107.67 15.24, 121.74 2.47 M69.25 62.85 C82.3 47.57, 95.91 32.16, 121.74 2.47 M74.89 62.45 C94.44 38.75, 116.22 13.22, 128.03 1.32 M74.89 62.45 C93.72 40.03, 113.56 18.77, 128.03 1.32 M79.88 62.81 C96.26 43.88, 110.9 27.89, 131.71 3.19 M79.88 62.81 C91.65 49.17, 102.78 37.11, 131.71 3.19 M84.87 63.17 C103.87 43.34, 121.96 20.79, 134.73 5.82 M84.87 63.17 C96.26 49.22, 109.17 36.13, 134.73 5.82 M90.51 62.78 C99.64 50.27, 108.52 39.31, 136.43 9.95 M90.51 62.78 C108.14 41.71, 125.55 22.02, 136.43 9.95 M95.5 63.14 C108.45 47.52, 120.92 31.46, 138.14 14.08 M95.5 63.14 C105.94 52.23, 114.21 41.1, 138.14 14.08 M101.14 62.75 C111.34 49.95, 121.33 38.04, 138.54 19.73 M101.14 62.75 C113.68 48.55, 125.25 35.67, 138.54 19.73 M106.13 63.11 C117.34 53.13, 125.97 40.3, 138.27 26.12 M106.13 63.11 C115.19 52.09, 124.17 43.21, 138.27 26.12 M111.11 63.47 C116.01 56.42, 120.39 50.57, 138.01 32.52 M111.11 63.47 C118.29 55.17, 124.34 48.14, 138.01 32.52 M116.76 63.07 C124.85 54.22, 134.74 43.32, 137.75 38.92 M116.76 63.07 C121.61 57, 127.37 52.03, 137.75 38.92 M122.4 62.68 C126.13 58.47, 130.81 53.36, 137.49 45.32 M122.4 62.68 C126.64 58.69, 128.46 54.79, 137.49 45.32" stroke="#ffec99" stroke-width="0.5" fill="none"></path><path d="M15.17 0 M15.17 0 C49.49 -1.29, 80.43 1.57, 120.83 0 M15.17 0 C53.66 0.95, 89.86 0.49, 120.83 0 M120.83 0 C129.55 0.91, 137.88 4.04, 136 15.17 M120.83 0 C129.28 1.47, 135.4 7.24, 136 15.17 M136 15.17 C134.77 26.04, 134.57 34.25, 136 45.5 M136 15.17 C135.43 24.73, 136.57 35.48, 136 45.5 M136 45.5 C137.84 54.91, 128.99 61.57, 120.83 60.67 M136 45.5 C137.48 53.7, 130.28 62.11, 120.83 60.67 M120.83 60.67 C86.52 62.65, 49.35 61.01, 15.17 60.67 M120.83 60.67 C97.6 61.53, 76.98 61.59, 15.17 60.67 M15.17 60.67 C6.61 59.67, -0.75 53.7, 0 45.5 M15.17 60.67 C7.1 61.39, 0.73 54.69, 0 45.5 M0 45.5 C0.33 36.71, 0.66 26.88, 0 15.17 M0 45.5 C0.81 33.92, -0.5 23.9, 0 15.17 M0 15.17 C-1.82 4.41, 5.18 -0.29, 15.17 0 M0 15.17 C2.02 5.37, 5.98 -0.06, 15.17 0" stroke="#f08c00" stroke-width="1" fill="none"></path></g><g transform="translate(682.8525848388672 108.33332824707031) rotate(0 35.2099609375 25)"><text x="35.2099609375" y="0" font-family="HanziPen SC, HanziPen Remote, Virgil, KaiTi, Segoe UI Emoji" font-size="20px" fill="#f08c00" text-anchor="middle" style="white-space: pre;" direction="ltr" dominant-baseline="text-before-edge">Makefile</text><text x="35.2099609375" y="25" font-family="HanziPen SC, HanziPen Remote, Virgil, KaiTi, Segoe UI Emoji" font-size="20px" fill="#f08c00" text-anchor="middle" style="white-space: pre;" direction="ltr" dominant-baseline="text-before-edge">(生成)</text></g><g stroke-linecap="round" transform="translate(649.3957977294922 220.99998474121094) rotate(0 68 30.333343505859375)"><path d="M2.18 5.87 C2.18 5.87, 2.18 5.87, 2.18 5.87 M2.18 5.87 C2.18 5.87, 2.18 5.87, 2.18 5.87 M1.26 13.02 C2.98 10.52, 4.9 7.26, 8.48 4.72 M1.26 13.02 C3.34 10.6, 5.52 8.54, 8.48 4.72 M1.66 18.67 C7.64 13.38, 8.87 6.94, 16.75 1.31 M1.66 18.67 C4.76 14.88, 8.32 11.73, 16.75 1.31 M1.4 25.06 C9.64 17.08, 16.53 9.47, 21.73 1.67 M1.4 25.06 C7.99 17.27, 13.87 11.22, 21.73 1.67 M1.79 30.71 C11.6 21.24, 16.27 12.95, 27.38 1.27 M1.79 30.71 C7.18 24.28, 13.06 16.85, 27.38 1.27 M1.53 37.1 C12.33 25.96, 20.3 14.62, 32.36 1.63 M1.53 37.1 C9.29 28.34, 17.09 20.17, 32.36 1.63 M1.27 43.5 C9.34 33.87, 20.86 19.24, 38.01 1.24 M1.27 43.5 C12.99 29.54, 23.57 17.41, 38.01 1.24 M1.01 49.9 C13 35.3, 26 17.84, 42.99 1.6 M1.01 49.9 C17.23 32.38, 32.52 14.21, 42.99 1.6 M2.71 54.03 C12.84 39.78, 23.67 27.57, 47.98 1.96 M2.71 54.03 C16.27 38.19, 29.83 22.51, 47.98 1.96 M5.08 57.41 C17.59 43.37, 28.7 31.93, 53.62 1.56 M5.08 57.41 C18.77 41, 32.95 24.38, 53.62 1.56 M8.09 60.04 C21.68 44.75, 36.13 26.02, 58.61 1.92 M8.09 60.04 C23.84 40.53, 40.71 20.87, 58.61 1.92 M11.77 61.91 C30.11 40.31, 48.9 18.96, 64.25 1.53 M11.77 61.91 C28.87 44.04, 43.89 24.77, 64.25 1.53 M16.76 62.27 C36.86 41.7, 53.88 19.54, 69.24 1.89 M16.76 62.27 C30.89 47.17, 44.46 31.68, 69.24 1.89 M21.74 62.63 C43.8 38.16, 62.21 13.23, 74.88 1.5 M21.74 62.63 C33.82 49.56, 47.09 34.04, 74.88 1.5 M27.39 62.23 C47.76 42.09, 63.4 17.69, 79.87 1.86 M27.39 62.23 C48.08 40.02, 67.53 17.36, 79.87 1.86 M32.37 62.59 C46.22 44.84, 60.77 28.91, 84.86 2.22 M32.37 62.59 C53.07 39.68, 73.33 15.06, 84.86 2.22 M38.02 62.2 C57 39.63, 74.25 17.22, 90.5 1.82 M38.02 62.2 C49.49 49.69, 59.72 37.42, 90.5 1.82 M43 62.56 C55.44 51.13, 66.42 33.81, 95.49 2.18 M43 62.56 C55.04 49.32, 66.28 34.62, 95.49 2.18 M47.99 62.92 C66.14 42.14, 85.46 19.01, 101.13 1.79 M47.99 62.92 C60.19 47.39, 75.25 32.51, 101.13 1.79 M53.63 62.52 C66.5 45.7, 82.6 30.48, 106.12 2.15 M53.63 62.52 C68.76 46.38, 82.92 29.16, 106.12 2.15 M58.62 62.88 C69.86 46.43, 83.2 31.52, 111.11 2.51 M58.62 62.88 C71.45 47.1, 85.42 33.61, 111.11 2.51 M64.26 62.49 C79.67 44.92, 95.82 28.48, 116.75 2.11 M64.26 62.49 C75.86 48.45, 87.2 35.39, 116.75 2.11 M69.25 62.85 C86.38 44.01, 102.38 21.81, 121.74 2.47 M69.25 62.85 C86.94 43.81, 105.4 23.8, 121.74 2.47 M74.89 62.45 C96.62 39.28, 116.93 14.65, 128.03 1.32 M74.89 62.45 C86.78 50.3, 95.75 37.34, 128.03 1.32 M79.88 62.81 C91.71 49.28, 102.02 34.86, 131.71 3.19 M79.88 62.81 C91.69 47.78, 103.4 35, 131.71 3.19 M84.87 63.17 C100.91 45.02, 119.85 23.54, 134.73 5.82 M84.87 63.17 C99.61 46.43, 113.79 28.71, 134.73 5.82 M90.51 62.78 C104.31 48.77, 115.45 34.26, 136.43 9.95 M90.51 62.78 C104.51 45.63, 121.01 27.22, 136.43 9.95 M95.5 63.14 C109.5 45.89, 126.67 26.67, 138.14 14.08 M95.5 63.14 C107.7 49.37, 120.63 34.56, 138.14 14.08 M101.14 62.75 C110.1 54.25, 114.45 46.48, 138.54 19.73 M101.14 62.75 C114.46 47.45, 128.32 32.1, 138.54 19.73 M106.13 63.11 C115.39 55.14, 124.91 42.19, 138.27 26.12 M106.13 63.11 C115 53.6, 124 43.53, 138.27 26.12 M111.11 63.47 C116.86 57.82, 123.19 52.12, 138.01 32.52 M111.11 63.47 C119.55 54.5, 127.92 44.95, 138.01 32.52 M116.76 63.07 C123.56 55.83, 132.58 45.09, 137.75 38.92 M116.76 63.07 C121.49 57.37, 126.45 51.85, 137.75 38.92 M122.4 62.68 C125.27 59.43, 130.92 53.52, 137.49 45.32 M122.4 62.68 C128.94 57.09, 133.7 49.26, 137.49 45.32" stroke="#ffec99" stroke-width="0.5" fill="none"></path><path d="M15.17 0 M15.17 0 C50.61 0.75, 85.65 -0.73, 120.83 0 M15.17 0 C50.12 -0.43, 84.46 -1.19, 120.83 0 M120.83 0 C131.72 1.77, 136.34 6.73, 136 15.17 M120.83 0 C130.13 -2.17, 135.77 5, 136 15.17 M136 15.17 C136.27 23.12, 136.22 31.79, 136 45.5 M136 15.17 C136.06 23.15, 135.78 33.2, 136 45.5 M136 45.5 C135.21 57.01, 129.07 62.62, 120.83 60.67 M136 45.5 C135.86 56.79, 129.59 62.65, 120.83 60.67 M120.83 60.67 C97.89 59.84, 73.94 62.15, 15.17 60.67 M120.83 60.67 C89.68 60.35, 57.89 60.08, 15.17 60.67 M15.17 60.67 C5.09 59.87, 1.03 57.03, 0 45.5 M15.17 60.67 C4.14 58.4, 0.56 56.8, 0 45.5 M0 45.5 C2.1 41.05, -1.54 33.24, 0 15.17 M0 45.5 C-0.49 33.91, -0.08 23.44, 0 15.17 M0 15.17 C1.36 5.8, 5.67 -0.92, 15.17 0 M0 15.17 C-0.65 3.32, 3.51 -1.75, 15.17 0" stroke="#f08c00" stroke-width="1" fill="none"></path></g><g transform="translate(657.3957977294922 226.3333282470703) rotate(0 60 25)"><text x="60" y="0" font-family="HanziPen SC, HanziPen Remote, Virgil, KaiTi, Segoe UI Emoji" font-size="20px" fill="#f08c00" text-anchor="middle" style="white-space: pre;" direction="ltr" dominant-baseline="text-before-edge">make</text><text x="60" y="25" font-family="HanziPen SC, HanziPen Remote, Virgil, KaiTi, Segoe UI Emoji" font-size="20px" fill="#f08c00" text-anchor="middle" style="white-space: pre;" direction="ltr" dominant-baseline="text-before-edge">（执行命令）</text></g><g stroke-linecap="round" transform="translate(403.7292938232422 208.00001525878906) rotate(0 48 42.5)"><path d="M13.5 13.06 C13.5 13.06, 13.5 13.06, 13.5 13.06 M13.5 13.06 C13.5 13.06, 13.5 13.06, 13.5 13.06 M4.43 30.27 C8.31 25.43, 14.57 19.1, 22.11 7.05 M3.63 31 C7.81 25.68, 12.66 20.23, 23.77 6.45 M2.64 36.3 C13.97 24.82, 23.43 15.32, 35.13 1.13 M2.56 37.58 C13.15 26.66, 22.89 15.22, 33.71 0.73 M2.17 41.35 C14.45 30.19, 26.73 17.9, 40.22 1.37 M4.3 43.74 C15.03 27.98, 29.42 13.46, 38.06 3.82 M3.61 46.88 C16.72 32.33, 28.42 17.39, 44.69 4.21 M4.53 48.36 C14.13 36.74, 25.41 23.9, 43.9 2.17 M3.23 52.94 C14.8 42.8, 23.2 32.13, 47.5 4.14 M4.25 53.29 C12.66 43.33, 21.69 32.62, 48.93 2.35 M5.22 60.02 C15.16 48.78, 23.37 35.05, 55.26 1.93 M4.77 59.43 C15.58 47.44, 26.22 33.92, 54.2 3.54 M7.69 64.68 C20.46 48.26, 35.58 31.22, 59 2.32 M6.58 62.58 C18.86 49.3, 30.08 36.6, 59.74 3.33 M9.6 67.43 C24.44 47.73, 37.74 33.28, 64.34 1.61 M11.07 65.44 C21.73 52.76, 32.57 38.39, 65.53 1.57 M14.13 70.88 C29.45 51.85, 40.81 35.18, 68.31 5.84 M12.71 69.98 C28.07 51.63, 42.1 35.1, 69.15 4.7 M15.48 70.57 C34.34 51.24, 49.74 30.36, 70.01 8.06 M14.64 72.47 C35.47 49.56, 55.12 27.64, 71.2 7.22 M17.68 74.86 C32.58 57.14, 51.69 36.07, 76.86 10.08 M18.35 75.55 C36.72 53.65, 57.68 29.97, 74.44 9.59 M20.02 76.8 C40.55 55.34, 61.65 31.2, 76.68 11.23 M19.87 78.28 C34.33 62.28, 46.12 46.87, 78.62 11.25 M25.21 80.54 C45.82 59.26, 61.79 34.83, 81.15 11.57 M24.75 78.71 C41.8 59.89, 58.58 40.69, 82.77 13.98 M28.81 81.67 C46.46 62.16, 65.2 41.64, 83.96 15.49 M28.35 80.47 C48.75 57.91, 68.27 34.97, 86.18 15.64 M34.73 81.84 C48.23 67.16, 60.27 51.24, 90.22 20.07 M34.08 81.54 C52.27 61.23, 70.65 39.8, 88.61 18.8 M35.99 81.92 C55.01 65.54, 71.99 45.41, 89.31 20.71 M37.03 83.6 C52.41 66.38, 67.8 49.13, 89.92 22.52 M40.8 85.6 C59.56 64.59, 77.67 43.07, 91.6 27.76 M40.85 85.81 C53.27 70.28, 65.33 57.41, 91.68 27.15 M44.8 85.75 C57.7 71.05, 70.89 59.22, 92.63 28.89 M44.75 85.38 C61.71 69.41, 75.43 50.72, 94.08 30.91 M52.36 84.31 C65.66 71.68, 76.51 56.69, 94.57 33.49 M51.7 83.64 C63.41 71.89, 73.18 61.14, 94.26 34.47 M59.59 84.72 C70.25 68.56, 82.08 54.47, 98.3 38.5 M58.19 82.63 C67.52 74.04, 74.32 64.51, 97.16 38.98 M64.9 81.7 C76.04 69.83, 86.69 57.71, 95.65 46.85 M65.63 81.1 C75.05 72.5, 82.22 62.46, 94.62 48.69 M74.62 78.68 C78.99 71.23, 84.96 64.41, 93.96 54.98 M72.78 78.13 C77.04 74.07, 81.79 68.78, 92.71 56.64" stroke="#ffec99" stroke-width="0.5" fill="none"></path><path d="M36.19 0.36 C44.21 -2.23, 55.4 -1.02, 63.71 1.56 C72.01 4.14, 80.73 9.67, 86.01 15.83 C91.29 21.99, 94.65 30.92, 95.38 38.52 C96.12 46.11, 94.27 54.69, 90.41 61.41 C86.54 68.12, 79.75 74.76, 72.19 78.82 C64.64 82.88, 53.79 85.98, 45.07 85.75 C36.36 85.53, 26.98 82.12, 19.91 77.49 C12.83 72.86, 5.8 65.08, 2.62 57.96 C-0.56 50.85, -0.95 42.25, 0.84 34.8 C2.62 27.35, 6.29 18.95, 13.33 13.26 C20.37 7.56, 37.24 2.6, 43.09 0.64 C48.94 -1.33, 48.48 0.95, 48.42 1.47 M66.5 2.44 C74.54 5.01, 84.11 12.54, 88.79 18.96 C93.48 25.38, 94.63 33.37, 94.62 40.96 C94.62 48.55, 92.99 57.69, 88.78 64.51 C84.57 71.33, 77.18 78.36, 69.36 81.86 C61.53 85.35, 50.59 86.7, 41.81 85.5 C33.03 84.29, 23.04 79.32, 16.66 74.62 C10.28 69.92, 5.92 64.17, 3.54 57.3 C1.16 50.42, 0.2 40.88, 2.37 33.35 C4.55 25.82, 10.2 17.7, 16.58 12.13 C22.97 6.55, 32.21 1.5, 40.68 -0.1 C49.15 -1.7, 63.26 2.03, 67.4 2.54 C71.53 3.05, 66.09 2.27, 65.47 2.96" stroke="#f08c00" stroke-width="1" fill="none"></path></g><g transform="translate(431.78816832628786 225.44797705836078) rotate(0 20 25)"><text x="20" y="0" font-family="HanziPen SC, HanziPen Remote, Virgil, KaiTi, Segoe UI Emoji" font-size="20px" fill="#f08c00" text-anchor="middle" style="white-space: pre;" direction="ltr" dominant-baseline="text-before-edge">目标</text><text x="20" y="25" font-family="HanziPen SC, HanziPen Remote, Virgil, KaiTi, Segoe UI Emoji" font-size="20px" fill="#f08c00" text-anchor="middle" style="white-space: pre;" direction="ltr" dominant-baseline="text-before-edge">文件</text></g><g stroke-linecap="round"><g transform="translate(146.39585876464844 141.3333282470703) rotate(0 22.25634078457952 0.9566200063231634)"><path d="M-1.18 1.17 C6.4 1.38, 37.84 2.02, 45.69 1.87 M0.4 0.73 C7.84 0.53, 37.42 -0.01, 44.94 0.02" stroke="#f08c00" stroke-width="1" fill="none"></path></g><g transform="translate(146.39585876464844 141.3333282470703) rotate(0 22.25634078457952 0.9566200063231634)"><path d="M25.64 8.56 C31.24 6.65, 35.2 4.19, 45.77 -0.89 M23.22 8.08 C31.71 4.54, 38.81 1.92, 44.46 -0.25" stroke="#f08c00" stroke-width="1" fill="none"></path></g><g transform="translate(146.39585876464844 141.3333282470703) rotate(0 22.25634078457952 0.9566200063231634)"><path d="M25.51 -6.95 C31.23 -3.97, 35.23 -1.54, 45.77 -0.89 M23.09 -7.44 C31.75 -5.38, 38.9 -2.41, 44.46 -0.25" stroke="#f08c00" stroke-width="1" fill="none"></path></g></g><mask></mask><g stroke-linecap="round"><g transform="translate(329.33331298828125 144.5076166940143) rotate(0 21.397370046018636 -0.6098573937897385)"><path d="M0.37 -0.41 C7.65 -0.3, 36.49 0.25, 43.69 0.54 M-0.9 -1.67 C6.27 -1.92, 35.74 -1.58, 43.08 -1.37" stroke="#f08c00" stroke-width="1" fill="none"></path></g><g transform="translate(329.33331298828125 144.5076166940143) rotate(0 21.397370046018636 -0.6098573937897385)"><path d="M22.03 6.68 C29.55 4.36, 37.01 3.22, 41.93 -1.95 M22.98 5.86 C27.95 3.01, 33.1 2.22, 43.22 -0.98" stroke="#f08c00" stroke-width="1" fill="none"></path></g><g transform="translate(329.33331298828125 144.5076166940143) rotate(0 21.397370046018636 -0.6098573937897385)"><path d="M22.3 -8.05 C29.72 -5.91, 37.1 -2.6, 41.93 -1.95 M23.24 -8.87 C28.03 -8.12, 33.12 -5.32, 43.22 -0.98" stroke="#f08c00" stroke-width="1" fill="none"></path></g></g><mask></mask><g mask="url(#mask-CmV5NOnOxjWIOnVFEsg_0)" stroke-linecap="round"><g transform="translate(511.06260681152344 138.15215148474803) rotate(0 66.89687039330602 1.7543220815164773)"><path d="M-0.86 0.92 C21.67 1.56, 111.95 2.99, 134.66 3.15 M0.89 0.36 C23.3 0.68, 111.35 0.8, 133.7 1.18" stroke="#f08c00" stroke-width="1" fill="none"></path></g><g transform="translate(511.06260681152344 138.15215148474803) rotate(0 66.89687039330602 1.7543220815164773)"><path d="M106.96 11.19 C113.25 10.05, 118.38 7.85, 135.61 2.79 M106.31 10.89 C115.32 8.07, 124.94 4.06, 134 1.52" stroke="#f08c00" stroke-width="1" fill="none"></path></g><g transform="translate(511.06260681152344 138.15215148474803) rotate(0 66.89687039330602 1.7543220815164773)"><path d="M107.13 -9.33 C113.26 -5.19, 118.35 -2.11, 135.61 2.79 M106.48 -9.63 C115.28 -5.75, 124.84 -3.06, 134 1.52" stroke="#f08c00" stroke-width="1" fill="none"></path></g></g><mask id="mask-CmV5NOnOxjWIOnVFEsg_0"><rect x="0" y="0" fill="#fff" width="745.7292938232422" height="241.0111769536227"></rect><rect x="568.3959503173828" y="114.58166421918534" fill="#000" width="20" height="50" opacity="1"></rect></mask><g transform="translate(568.3959503173828 114.58166421918537) rotate(0 9.563526887446642 25.32480934707914)"><text x="10" y="0" font-family="HanziPen SC, HanziPen Remote, Virgil, KaiTi, Segoe UI Emoji" font-size="20px" fill="#f08c00" text-anchor="middle" style="white-space: pre;" direction="ltr" dominant-baseline="text-before-edge">生</text><text x="10" y="25" font-family="HanziPen SC, HanziPen Remote, Virgil, KaiTi, Segoe UI Emoji" font-size="20px" fill="#f08c00" text-anchor="middle" style="white-space: pre;" direction="ltr" dominant-baseline="text-before-edge">成</text></g><g stroke-linecap="round"><g transform="translate(723.8437153207703 169.33335876464844) rotate(0 0.2639333053414248 26.472463997383613)"><path d="M-0.68 0.67 C-0.43 9.34, 1.03 44.45, 1.18 52.96 M1.17 -0.02 C1.34 8.24, 0.88 42.52, 0.56 51.35" stroke="#f08c00" stroke-width="1" fill="none"></path></g><g transform="translate(723.8437153207703 169.33335876464844) rotate(0 0.2639333053414248 26.472463997383613)"><path d="M-6.66 27.77 C-3.67 33.04, -3.38 39.21, 0.14 52.86 M-7.27 27.17 C-4.15 36.67, -0.71 46.01, 0.94 51.72" stroke="#f08c00" stroke-width="1" fill="none"></path></g><g transform="translate(723.8437153207703 169.33335876464844) rotate(0 0.2639333053414248 26.472463997383613)"><path d="M11.12 28.17 C9.2 33.23, 4.57 39.29, 0.14 52.86 M10.51 27.56 C6.78 37.03, 3.37 46.23, 0.94 51.72" stroke="#f08c00" stroke-width="1" fill="none"></path></g></g><mask></mask><g stroke-linecap="round"><g transform="translate(647.0625457763672 256.6666717529297) rotate(0 -75.23653338313568 -2.2075504596438122)"><path d="M0.91 -0.79 C-24.21 -1.27, -125.35 -3.57, -150.75 -4.03 M-0.07 1.41 C-25.3 0.68, -126.01 -4.69, -151.38 -5.83" stroke="#f08c00" stroke-width="1" fill="none"></path></g><g transform="translate(647.0625457763672 256.6666717529297) rotate(0 -75.23653338313568 -2.2075504596438122)"><path d="M-124.04 -13.71 C-130.35 -12.06, -138.21 -9.76, -152.79 -5.81 M-122.94 -14.76 C-133.76 -11.46, -145.32 -7.67, -151.84 -6.8" stroke="#f08c00" stroke-width="1" fill="none"></path></g><g transform="translate(647.0625457763672 256.6666717529297) rotate(0 -75.23653338313568 -2.2075504596438122)"><path d="M-125.05 6.79 C-130.86 2.29, -138.42 -1.56, -152.79 -5.81 M-123.94 5.73 C-134.23 0.89, -145.39 -3.48, -151.84 -6.8" stroke="#f08c00" stroke-width="1" fill="none"></path></g></g><mask></mask><g stroke-linecap="round"><g transform="translate(73.06254577636719 107.33332824707031) rotate(0 0.7523217766459709 -28.48674023821951)"><path d="M1.1 -0.6 C1.12 -9.85, 0.53 -47.02, 0.41 -56.38" stroke="#1971c2" stroke-width="1.5" fill="none" stroke-dasharray="8 9"></path></g></g><mask></mask><g stroke-linecap="round"><g transform="translate(73.72917175292969 46) rotate(0 324.3649977616966 -2.2238663725555057)"><path d="M0.04 -0.92 C108.06 -1.38, 540.39 -2.71, 648.69 -3.53" stroke="#1971c2" stroke-width="1.5" fill="none" stroke-dasharray="8 9"></path></g></g><mask></mask><g stroke-linecap="round"><g transform="translate(722.3959197998047 44.66667175292969) rotate(0 -0.8562341098026991 26.925914926081887)"><path d="M-1.17 -0.02 C-1.35 8.85, -0.74 45.01, -0.51 53.87" stroke="#1971c2" stroke-width="1.5" fill="none" stroke-dasharray="8 9"></path></g><g transform="translate(722.3959197998047 44.66667175292969) rotate(0 -0.8562341098026991 26.925914926081887)"><path d="M-10.28 27.84 C-6.92 37.91, -4.66 46.82, -1.38 53.33" stroke="#1971c2" stroke-width="1.5" fill="none"></path></g><g transform="translate(722.3959197998047 44.66667175292969) rotate(0 -0.8562341098026991 26.925914926081887)"><path d="M8.18 27.47 C5.09 37.49, 0.88 46.53, -1.38 53.33" stroke="#1971c2" stroke-width="1.5" fill="none"></path></g></g><mask></mask><g transform="translate(279.72911071777344 10) rotate(0 145.2099609375 12.5)"><text x="0" y="0" font-family="HanziPen SC, HanziPen Remote, Virgil, KaiTi, Segoe UI Emoji" font-size="20px" fill="#1971c2" text-anchor="start" style="white-space: pre;" direction="ltr" dominant-baseline="text-before-edge">编写（虚线为原有Makefile流程）</text></g><g stroke-linecap="round"><g transform="translate(683.7291717529297 165.3333282470703) rotate(0 0.5008812974189709 27.760781567543745)"><path d="M0.81 -0.33 C0.85 8.88, 0.23 46.48, 0.19 55.85" stroke="#1971c2" stroke-width="1.5" fill="none" stroke-dasharray="8 9"></path></g><g transform="translate(683.7291717529297 165.3333282470703) rotate(0 0.5008812974189709 27.760781567543745)"><path d="M-9.76 27.21 C-7.68 35.66, -4.83 43.52, -0.98 55.82" stroke="#1971c2" stroke-width="1.5" fill="none"></path></g><g transform="translate(683.7291717529297 165.3333282470703) rotate(0 0.5008812974189709 27.760781567543745)"><path d="M9.62 27.42 C6.02 35.94, 3.19 43.73, -0.98 55.82" stroke="#1971c2" stroke-width="1.5" fill="none"></path></g></g><mask></mask><g stroke-linecap="round"><g transform="translate(646.3959197998047 230.6666717529297) rotate(0 -74.670598154515 1.0231551580130827)"><path d="M0.11 -0.64 C-24.63 -0.38, -124.34 1.83, -149.45 2.69" stroke="#1971c2" stroke-width="1.5" fill="none" stroke-dasharray="8 9"></path></g><g transform="translate(646.3959197998047 230.6666717529297) rotate(0 -74.670598154515 1.0231551580130827)"><path d="M-122.62 -7.41 C-128.55 -6.8, -131.52 -5.15, -148.55 1.64" stroke="#1971c2" stroke-width="1.5" fill="none"></path></g><g transform="translate(646.3959197998047 230.6666717529297) rotate(0 -74.670598154515 1.0231551580130827)"><path d="M-122.07 13.1 C-128.31 9.27, -131.4 6.48, -148.55 1.64" stroke="#1971c2" stroke-width="1.5" fill="none"></path></g></g><mask></mask></svg>